<svg width="15" height="18" viewBox="0 0 15 18" fill="none" xmlns="http://www.w3.org/2000/svg">
<path d="M7.04566 7.27483C6.82295 7.28317 6.59757 7.27546 6.36686 7.24729C5.97279 7.20056 5.56844 7.10648 5.13721 7.04118C5.46593 7.33011 5.8421 7.55583 6.26435 7.70042C6.6843 7.84583 7.15601 7.89652 7.60881 7.821C8.05897 7.74319 8.46598 7.58151 8.85035 7.36935C9.23147 7.15614 9.58281 6.88598 9.85852 6.54219C9.44473 6.68009 9.05784 6.81882 8.66974 6.94023C8.35662 7.03745 8.03979 7.11839 7.72979 7.18369C8.10659 6.31478 8.24383 5.3806 8.1448 4.4633C8.71947 4.44953 9.29845 4.44682 9.87002 4.31789C10.163 4.25447 10.4529 4.1585 10.7258 4.02082C10.9963 3.88021 11.2509 3.70539 11.4827 3.50199C11.9431 3.09018 12.2993 2.56445 12.5432 1.99263C12.6075 1.84639 12.6548 1.71142 12.7094 1.5464L12.8161 1.10163C12.8494 0.953927 12.8814 0.806436 12.9104 0.655185C12.9246 0.57883 12.9383 0.503522 12.9492 0.419867C12.9533 0.372094 12.9622 0.347892 12.956 0.255687C12.9519 0.233782 12.9574 0.243169 12.9437 0.195813C12.9371 0.176412 12.9287 0.157219 12.9186 0.139902C12.9126 0.116954 12.8255 0.0322575 12.759 0.0282947L12.7062 0.0220358L12.6482 0.0166122C12.0247 -0.0336647 11.4124 0.0322584 10.8051 0.186219C10.2037 0.351232 9.62024 0.63579 9.14214 1.06074C8.46165 1.65237 8.03472 2.49624 7.90654 3.36243C7.77423 2.95688 7.5959 2.56177 7.36638 2.1852C7.28091 2.0446 7.09929 2.0012 6.96102 2.08841C6.82295 2.1754 6.77981 2.35961 6.86569 2.50021C7.7522 3.9543 7.8262 5.71771 7.06334 7.21682C7.05245 7.23476 7.05101 7.2552 7.04567 7.27481L7.04566 7.27483ZM8.04726 3.55601C8.12759 3.27584 8.24881 3.01132 8.39777 2.76742C8.70081 2.28197 9.09198 1.86785 9.51912 1.52594C9.95181 1.18944 10.4408 0.921174 10.9686 0.746323C11.4494 0.584439 11.9706 0.494733 12.4812 0.492436C12.4773 0.52206 12.475 0.550222 12.4709 0.580263C12.451 0.724208 12.4265 0.870032 12.4011 1.01564L12.3197 1.4479C12.2856 1.56786 12.2422 1.71806 12.1915 1.8474C11.9936 2.38355 11.6883 2.88279 11.2838 3.28621C10.8873 3.69677 10.3913 4.0166 9.83881 4.19786C9.29518 4.37309 8.71125 4.41878 8.13706 4.40459C8.10973 4.17428 8.0672 3.94543 8.01008 3.71908C8.02118 3.66421 8.03309 3.60934 8.04727 3.55594L8.04726 3.55601Z" fill="white"/>
<path d="M14.9049 8.49357C14.839 8.03482 14.7377 7.57338 14.5672 7.12878C14.3968 6.68651 14.153 6.25698 13.8113 5.91422C13.1224 5.23185 12.1804 4.92391 11.279 4.89828C10.374 4.86511 9.47536 5.03972 8.65685 5.38727C9.50539 5.12858 10.3985 5.04535 11.2604 5.14507C12.1151 5.23957 12.9523 5.58879 13.4986 6.21634C14.0449 6.84071 14.2561 7.70503 14.3327 8.56513C14.4104 9.43132 14.3757 10.3069 14.2202 11.1622C14.0665 12.0173 13.8076 12.8522 13.4629 13.6467C13.2921 14.0447 13.0953 14.4311 12.8771 14.8039C12.6647 15.1798 12.4261 15.5196 12.1519 15.8307C11.6062 16.4472 10.9224 16.9184 10.1555 17.0597C9.38849 17.2107 8.56399 17.0618 7.8036 16.7451C7.71403 16.705 7.56918 16.6735 7.44899 16.6846C7.33167 16.6854 7.17122 16.753 7.15499 16.7603C7.05966 16.7995 6.9633 16.8356 6.86612 16.8686C6.67196 16.9335 6.47575 16.9925 6.27767 17.0315C5.88217 17.1147 5.48131 17.1412 5.09178 17.0985C4.31062 17.0217 3.6002 16.6134 3.02595 16.0274C2.73708 15.737 2.48232 15.4032 2.25962 15.0459C2.03773 14.6802 1.82776 14.2982 1.64572 13.9062C1.28289 13.1197 1.00325 12.2927 0.823268 11.4422C0.648222 10.5909 0.582272 9.71692 0.635278 8.84805C0.68808 7.98293 0.84669 7.10483 1.32561 6.4231C1.79918 5.74154 2.61132 5.32139 3.45455 5.17618C4.30614 5.03411 5.20217 5.14176 6.05912 5.35705C5.22762 5.05226 4.33596 4.85136 3.42294 4.92939C2.52138 5.00991 1.59706 5.3971 0.98152 6.15457C0.67786 6.5305 0.475485 6.97425 0.333532 7.42318C0.192385 7.87483 0.109588 8.33439 0.0584271 8.79507C-0.0479963 9.71862 -0.00321031 10.6555 0.145537 11.572C0.224842 12.0295 0.32983 12.4824 0.459264 12.9282C0.594453 13.3724 0.757996 13.8071 0.941468 14.2333C1.12761 14.6591 1.34005 15.0693 1.57326 15.4744C1.81446 15.8822 2.09573 16.2717 2.42858 16.6226C2.75936 16.9743 3.14704 17.2827 3.58075 17.5205C4.01673 17.7564 4.5024 17.9123 4.99307 17.9696C5.48431 18.0281 5.97783 17.9968 6.44994 17.9014C6.68703 17.8559 6.91714 17.7892 7.14358 17.7153C7.25678 17.678 7.36834 17.6369 7.47847 17.5927C7.48813 17.5887 7.49059 17.5881 7.49676 17.5856C8.36417 17.934 9.34831 18.1161 10.3207 17.9189C11.3077 17.7253 12.1648 17.1216 12.7777 16.3898C13.0867 16.0236 13.3538 15.6193 13.5726 15.2102C13.7976 14.8047 13.9987 14.3854 14.172 13.955C14.5266 13.0976 14.7703 12.1932 14.8974 11.2726C15.0263 10.353 15.0392 9.41356 14.905 8.49359L14.9049 8.49357Z" fill="white"/>
</svg>
