<svg width="56" height="46" viewBox="0 0 56 46" fill="none" xmlns="http://www.w3.org/2000/svg">
<path d="M27.5625 2.875C30.1732 2.875 32.677 3.63225 34.5231 4.98017C36.3691 6.32809 37.4062 8.15626 37.4062 10.0625V11.5H17.7188V10.0625C17.7188 8.15626 18.7559 6.32809 20.6019 4.98017C22.448 3.63225 24.9518 2.875 27.5625 2.875V2.875ZM41.3438 11.5V10.0625C41.3438 7.39376 39.8918 4.83432 37.3073 2.94724C34.7228 1.06015 31.2175 0 27.5625 0C23.9075 0 20.4022 1.06015 17.8177 2.94724C15.2332 4.83432 13.7813 7.39376 13.7812 10.0625V11.5H0V40.25C0 41.775 0.829685 43.2375 2.30653 44.3159C3.78338 45.3942 5.78642 46 7.875 46H47.25C49.3386 46 51.3416 45.3942 52.8185 44.3159C54.2953 43.2375 55.125 41.775 55.125 40.25V11.5H41.3438ZM3.9375 14.375H51.1875V40.25C51.1875 41.0125 50.7727 41.7438 50.0342 42.2829C49.2958 42.8221 48.2943 43.125 47.25 43.125H7.875C6.83071 43.125 5.82919 42.8221 5.09077 42.2829C4.35234 41.7438 3.9375 41.0125 3.9375 40.25V14.375Z" fill="#F8F8F8"/>
</svg>
