<svg width="33" height="28" viewBox="0 0 33 28" fill="none" xmlns="http://www.w3.org/2000/svg">
<path d="M19.1942 13.9229L32.5592 2.58293C32.8595 2.28535 33.0165 1.90257 32.9986 1.51107C32.9808 1.11958 32.7895 0.748204 32.463 0.471168C32.1365 0.194132 31.6988 0.0318363 31.2374 0.0167145C30.776 0.00159274 30.3249 0.134758 29.9742 0.389599L16.6092 11.7296L3.24416 0.374044C2.89344 0.119203 2.44231 -0.0139617 1.9809 0.00116011C1.51949 0.0162819 1.08181 0.178576 0.755298 0.455612C0.428792 0.732648 0.237515 1.10402 0.219693 1.49552C0.201871 1.88701 0.358816 2.2698 0.659164 2.56738L14.0242 13.9229L0.640831 25.2629C0.448914 25.4024 0.293043 25.574 0.183001 25.767C0.072958 25.96 0.0111186 26.1702 0.00136616 26.3844C-0.00838624 26.5986 0.034158 26.8123 0.126328 27.0119C0.218498 27.2115 0.358305 27.3928 0.536972 27.5444C0.715639 27.696 0.929309 27.8146 1.16457 27.8928C1.39983 27.971 1.65161 28.0071 1.9041 27.9988C2.15658 27.9906 2.40432 27.9381 2.63178 27.8447C2.85923 27.7514 3.06148 27.6191 3.22583 27.4563L16.6092 16.1163L29.9742 27.4563C30.3249 27.7111 30.776 27.8443 31.2374 27.8291C31.6988 27.814 32.1365 27.6517 32.463 27.3747C32.7895 27.0977 32.9808 26.7263 32.9986 26.3348C33.0165 25.9433 32.8595 25.5605 32.5592 25.2629L19.1942 13.9229Z" fill="#F8F8F8"/>
</svg>
