<svg width="15" height="20" viewBox="0 0 58 47" fill="none" xmlns="http://www.w3.org/2000/svg">
<path d="M23.5155 0.000849532C10.5381 0.000849532 0 8.53217 0 19.0372C0 29.5422 10.5387 38.0735 23.5155 38.0735C29.7118 38.0735 35.3491 36.1506 39.552 32.9745L55.6665 46.0414C55.9946 46.307 56.546 46.307 56.8735 46.0414C57.2017 45.7758 57.2017 45.3508 56.8735 45.0852L40.732 32.0182C44.6403 28.6183 47.0308 24.0419 47.0308 19.0363C47.0308 8.53083 36.4921 0 23.5153 0L23.5155 0.000849532ZM23.5155 1.36073C35.5852 1.36073 45.351 9.26681 45.351 19.0371C45.351 28.8073 35.5846 36.7134 23.5155 36.7134C11.4463 36.7134 1.68 28.8073 1.68 19.0371C1.68 9.26681 11.4463 1.36073 23.5155 1.36073Z" fill="white"/>
</svg>
